<svg width="490" height="596" viewBox="0 0 490 596" fill="none" xmlns="http://www.w3.org/2000/svg">
<path d="M150 183L300 263.491V424.509L150 505L0 424.509V263.491L150 183Z" fill="white"/>
<path d="M272.902 418.719L154.692 482V432.725L228.346 394.375L272.902 418.719V418.719ZM281 411.79V279.473L237.761 303.121V388.179L281 411.79V411.79ZM26.0977 418.719L144.308 482V432.725L70.6155 394.375L26.0977 418.719ZM18 411.79V279.473L61.2393 303.121V388.179L18 411.79ZM23.0756 270.894L144.308 206V253.625L66.6248 294.065L66.0049 294.395L23.0756 270.894V270.894ZM275.924 270.894L154.692 206V253.625L232.375 294.028L232.995 294.358L275.924 270.894Z" fill="#8ED6FB"/>
<path d="M144.8 422L72 384.006V308.792L144.8 348.664V422ZM155.2 422L228 384.043V308.792L155.2 348.664V422ZM76.9284 300.104L150 262L223.072 300.104L150 340.122L76.9284 300.104V300.104Z" fill="#1C78C0"/>
<path d="M150 0L300 80.4908V241.509L150 322L0 241.509V80.4908L150 0Z" fill="white"/>
<path d="M272.902 235.719L154.692 299V249.725L228.346 211.375L272.902 235.719V235.719ZM281 228.79V96.4729L237.761 120.121V205.179L281 228.79V228.79ZM26.0977 235.719L144.308 299V249.725L70.6155 211.375L26.0977 235.719ZM18 228.79V96.4729L61.2393 120.121V205.179L18 228.79ZM23.0756 87.8937L144.308 23V70.6254L66.6248 111.065L66.0049 111.395L23.0756 87.8937V87.8937ZM275.924 87.8937L154.692 23V70.6254L232.375 111.028L232.995 111.358L275.924 87.8937Z" fill="#8ED6FB"/>
<path d="M144.8 239L72 201.006V125.792L144.8 165.664V239ZM155.2 239L228 201.043V125.792L155.2 165.664V239ZM76.9284 117.104L150 79L223.072 117.104L150 157.122L76.9284 117.104V117.104Z" fill="#1C78C0"/>
<path d="M320 274L470 354.491V515.509L320 596L170 515.509V354.491L320 274Z" fill="white"/>
<path d="M442.902 509.719L324.692 573V523.725L398.346 485.375L442.902 509.719V509.719ZM451 502.79V370.473L407.761 394.121V479.179L451 502.79V502.79ZM196.098 509.719L314.308 573V523.725L240.616 485.375L196.098 509.719ZM188 502.79V370.473L231.239 394.121V479.179L188 502.79ZM193.076 361.894L314.308 297V344.625L236.625 385.065L236.005 385.395L193.076 361.894V361.894ZM445.924 361.894L324.692 297V344.625L402.375 385.028L402.995 385.358L445.924 361.894Z" fill="#8ED6FB"/>
<path d="M314.8 513L242 475.006V399.792L314.8 439.664V513ZM325.2 513L398 475.043V399.792L325.2 439.664V513ZM246.928 391.104L320 353L393.072 391.104L320 431.122L246.928 391.104V391.104Z" fill="#1C78C0"/>
<path d="M320 91L470 171.491V332.509L320 413L170 332.509V171.491L320 91Z" fill="white"/>
<path d="M442.902 326.719L324.692 390V340.725L398.346 302.375L442.902 326.719V326.719ZM451 319.79V187.473L407.761 211.121V296.179L451 319.79V319.79ZM196.098 326.719L314.308 390V340.725L240.616 302.375L196.098 326.719ZM188 319.79V187.473L231.239 211.121V296.179L188 319.79ZM193.076 178.894L314.308 114V161.625L236.625 202.065L236.005 202.395L193.076 178.894V178.894ZM445.924 178.894L324.692 114V161.625L402.375 202.028L402.995 202.358L445.924 178.894Z" fill="#8ED6FB"/>
<path d="M314.8 330L242 292.006V216.792L314.8 256.664V330ZM325.2 330L398 292.043V216.792L325.2 256.664V330ZM246.928 208.104L320 170L393.072 208.104L320 248.122L246.928 208.104V208.104Z" fill="#1C78C0"/>
</svg>
